<svg width="132" height="33" viewBox="0 0 132 33" fill="none" xmlns="http://www.w3.org/2000/svg">
<g clip-path="url(#clip0)">
<path d="M28.8917 0.461692C28.8831 0.46418 28.8744 0.466418 28.8658 0.469154C28.8637 0.469838 28.8615 0.470336 28.8594 0.47102L0.618751 9.7717C0.25131 9.89277 0.000645777 10.2532 1.24586e-06 10.6615C-0.000643285 11.0699 0.248849 11.4311 0.615997 11.5534L11.5054 15.1817L9.44848 21.0379C9.32824 21.3802 9.40729 21.7654 9.65068 22.0237C9.89449 22.2825 10.2577 22.3657 10.5797 22.2383L16.0979 20.0556L19.517 31.6116C19.6321 32.0007 19.9719 32.2653 20.3561 32.2653C20.3565 32.2653 20.3571 32.2653 20.3575 32.2653C20.7422 32.2647 21.0819 31.9987 21.1959 31.6087L29.9599 1.63891C29.9605 1.6366 29.961 1.63424 29.9617 1.63194C29.9642 1.62299 29.9663 1.61397 29.9686 1.60502C30.1463 0.906287 29.5407 0.275895 28.8917 0.461692ZM3.83063 10.6682L24.5867 3.83247L12.4839 13.5515L3.83063 10.6682ZM11.7686 19.776L13.3877 15.1663L24.5871 6.17278L16.1123 18.0578L11.7686 19.776ZM20.351 28.2001L17.634 19.0169L26.7923 6.17315L20.351 28.2001Z" fill="#0F1138"/>
<path d="M6.9873 19.5715C6.64394 19.207 6.08713 19.207 5.74365 19.5715L0.467341 25.1708C0.123923 25.5353 0.123923 26.1261 0.467341 26.4906C0.810701 26.855 1.36752 26.855 1.71099 26.4906L6.9873 20.8913C7.33072 20.5267 7.33072 19.9359 6.9873 19.5715Z" fill="#1A75E8"/>
<path d="M11.9614 24.85C11.6179 24.4855 11.0611 24.4855 10.7177 24.85L5.4414 30.4493C5.09798 30.8138 5.09798 31.4046 5.4414 31.7691C5.78476 32.1336 6.34164 32.1336 6.68505 31.7691L11.9614 26.1698C12.3048 25.8054 12.3048 25.2145 11.9614 24.85Z" fill="#1A75E8"/>
<path d="M7.71555 24.0772C7.37219 23.7128 6.81538 23.7128 6.4719 24.0772L0.257563 30.672C-0.0858545 31.0365 -0.0858545 31.6273 0.257563 31.9918C0.600923 32.3563 1.1578 32.3563 1.50122 31.9918L7.71555 25.397C8.05897 25.0325 8.05897 24.4417 7.71555 24.0772Z" fill="#1A75E8"/>
</g>
<path d="M47.8594 17.7812H43.3594V22.7143H41.0156V10.6428H48.4219V12.6575H43.3594V15.7749H47.8594V17.7812Z" fill="#0F1138"/>
<path d="M52.0156 22.7143H49.75V13.7436H52.0156V22.7143ZM49.6172 11.4222C49.6172 11.0629 49.7292 10.7672 49.9531 10.5351C50.1823 10.3029 50.4922 10.1869 50.8828 10.1869C51.2682 10.1869 51.5755 10.3029 51.8047 10.5351C52.0339 10.7672 52.1484 11.0629 52.1484 11.4222C52.1484 11.787 52.0312 12.0855 51.7969 12.3176C51.5677 12.5497 51.263 12.6658 50.8828 12.6658C50.5026 12.6658 50.1953 12.5497 49.9609 12.3176C49.7318 12.0855 49.6172 11.787 49.6172 11.4222Z" fill="#0F1138"/>
<path d="M55.9609 13.7436L56.0312 14.78C56.6354 13.9785 57.4453 13.5778 58.4609 13.5778C59.3568 13.5778 60.0234 13.8569 60.4609 14.4152C60.8984 14.9734 61.1224 15.808 61.1328 16.919V22.7143H58.875V16.977C58.875 16.4685 58.7708 16.101 58.5625 15.8744C58.3542 15.6422 58.0078 15.5261 57.5234 15.5261C56.888 15.5261 56.4115 15.8136 56.0938 16.3884V22.7143H53.8359V13.7436H55.9609Z" fill="#0F1138"/>
<path d="M62.5 18.1626C62.5 16.7642 62.7943 15.6505 63.3828 14.8214C63.9766 13.9923 64.7865 13.5778 65.8125 13.5778C66.6354 13.5778 67.3151 13.9039 67.8516 14.5561V9.97958H70.1172V22.7143H68.0781L67.9688 21.7608C67.4062 22.507 66.6823 22.8801 65.7969 22.8801C64.8021 22.8801 64.0026 22.4656 63.3984 21.6365C62.7995 20.8019 62.5 19.6439 62.5 18.1626ZM64.7578 18.3367C64.7578 19.1769 64.8958 19.8208 65.1719 20.2685C65.4479 20.7162 65.849 20.94 66.375 20.94C67.0729 20.94 67.5651 20.6278 67.8516 20.0032V16.463C67.5703 15.8384 67.0833 15.5261 66.3906 15.5261C65.3021 15.5261 64.7578 16.463 64.7578 18.3367Z" fill="#0F1138"/>
<path d="M75.9375 16.0816L78.3047 10.6428H80.8672L77.1328 18.3367V22.7143H74.75V18.3367L71.0156 10.6428H73.5859L75.9375 16.0816Z" fill="#0F1138"/>
<path d="M80.8906 18.146C80.8906 17.2562 81.0521 16.463 81.375 15.7666C81.6979 15.0701 82.1615 14.5312 82.7656 14.1499C83.375 13.7685 84.0807 13.5778 84.8828 13.5778C86.0234 13.5778 86.9531 13.9481 87.6719 14.6888C88.3958 15.4294 88.7995 16.4354 88.8828 17.7066L88.8984 18.3201C88.8984 19.6964 88.5365 20.8019 87.8125 21.6365C87.0885 22.4656 86.1172 22.8801 84.8984 22.8801C83.6797 22.8801 82.7057 22.4656 81.9766 21.6365C81.2526 20.8074 80.8906 19.6798 80.8906 18.2538V18.146ZM83.1484 18.3201C83.1484 19.1713 83.2995 19.8235 83.6016 20.2768C83.9036 20.7245 84.3359 20.9483 84.8984 20.9483C85.4453 20.9483 85.8724 20.7272 86.1797 20.2851C86.487 19.8374 86.6406 19.1244 86.6406 18.146C86.6406 17.3114 86.487 16.6647 86.1797 16.206C85.8724 15.7472 85.4401 15.5178 84.8828 15.5178C84.3307 15.5178 83.9036 15.7472 83.6016 16.206C83.2995 16.6592 83.1484 17.3639 83.1484 18.3201Z" fill="#0F1138"/>
<path d="M95.3516 21.8023C94.7943 22.5208 94.0234 22.8801 93.0391 22.8801C92.1328 22.8801 91.4401 22.6037 90.9609 22.051C90.487 21.4983 90.2448 20.6886 90.2344 19.6218V13.7436H92.4922V19.5389C92.4922 20.473 92.8932 20.94 93.6953 20.94C94.4609 20.94 94.987 20.6582 95.2734 20.0944V13.7436H97.5391V22.7143H95.4141L95.3516 21.8023Z" fill="#0F1138"/>
<path d="M103.992 15.9904C103.685 15.9462 103.414 15.9241 103.18 15.9241C102.326 15.9241 101.766 16.2309 101.5 16.8444V22.7143H99.2422V13.7436H101.375L101.438 14.8131C101.891 13.9896 102.518 13.5778 103.32 13.5778C103.57 13.5778 103.805 13.6137 104.023 13.6856L103.992 15.9904Z" fill="#0F1138"/>
<path d="M110.602 10.6428H112.945V19C112.945 19.7683 112.784 20.4481 112.461 21.0395C112.143 21.6254 111.693 22.0786 111.109 22.3992C110.526 22.7198 109.867 22.8801 109.133 22.8801C107.93 22.8801 106.992 22.5568 106.32 21.9101C105.648 21.2579 105.312 20.3376 105.312 19.1492H107.672C107.672 19.7406 107.789 20.1773 108.023 20.4592C108.258 20.7411 108.628 20.882 109.133 20.882C109.581 20.882 109.938 20.719 110.203 20.3928C110.469 20.0667 110.602 19.6025 110.602 19V10.6428Z" fill="#1A75E8"/>
<path d="M114.453 18.146C114.453 17.2562 114.615 16.463 114.938 15.7666C115.26 15.0701 115.724 14.5312 116.328 14.1499C116.938 13.7685 117.643 13.5778 118.445 13.5778C119.586 13.5778 120.516 13.9481 121.234 14.6888C121.958 15.4294 122.362 16.4354 122.445 17.7066L122.461 18.3201C122.461 19.6964 122.099 20.8019 121.375 21.6365C120.651 22.4656 119.68 22.8801 118.461 22.8801C117.242 22.8801 116.268 22.4656 115.539 21.6365C114.815 20.8074 114.453 19.6798 114.453 18.2538V18.146ZM116.711 18.3201C116.711 19.1713 116.862 19.8235 117.164 20.2768C117.466 20.7245 117.898 20.9483 118.461 20.9483C119.008 20.9483 119.435 20.7272 119.742 20.2851C120.049 19.8374 120.203 19.1244 120.203 18.146C120.203 17.3114 120.049 16.6647 119.742 16.206C119.435 15.7472 119.003 15.5178 118.445 15.5178C117.893 15.5178 117.466 15.7472 117.164 16.206C116.862 16.6592 116.711 17.3639 116.711 18.3201Z" fill="#1A75E8"/>
<path d="M131.469 18.3119C131.469 19.7489 131.18 20.871 130.602 21.6779C130.023 22.4794 129.216 22.8801 128.18 22.8801C127.263 22.8801 126.531 22.507 125.984 21.7608L125.883 22.7143H123.852V9.97958H126.109V14.5478C126.63 13.9011 127.315 13.5778 128.164 13.5778C129.195 13.5778 130.003 13.9813 130.586 14.7883C131.174 15.5897 131.469 16.72 131.469 18.1792V18.3119ZM129.211 18.1377C129.211 17.2313 129.076 16.5708 128.805 16.1562C128.534 15.7362 128.13 15.5261 127.594 15.5261C126.875 15.5261 126.38 15.8384 126.109 16.463V20.0032C126.385 20.6333 126.885 20.9483 127.609 20.9483C128.339 20.9483 128.818 20.567 129.047 19.8042C129.156 19.4394 129.211 18.8839 129.211 18.1377Z" fill="#1A75E8"/>
<defs>
<clipPath id="clip0">
<rect width="30" height="31.8367" fill="white" transform="translate(0 0.428558)"/>
</clipPath>
</defs>
</svg>
